<!--?xml version="1.0" encoding="utf-8"?-->
<!-- Generator: $$$/GeneralStr/196=Adobe Illustrator 27.6.0, SVG Export Plug-In . SVG Version: 6.00 Build 0)  -->
<svg version="1.1" id="Calque_1" xmlns="http://www.w3.org/2000/svg" xmlns:xlink="http://www.w3.org/1999/xlink" x="0px" y="0px" viewBox="0 0 1920 1080" style="enable-background:new 0 0 1920 1080;" xml:space="preserve" width="1920" height="1080">
<style type="text/css">
	.st0{fill:#003955; stroke: #003955; stroke-width: 2px;}
</style>
<g>
	<path class="st0 svg-elem-1" d="M690.58,832.71c-10.52,0-19.62-3.84-26.59-10.81c-9.95-9.95-9.81-21.18-9.81-40.66
		c0-19.48-0.14-30.72,9.81-40.67c6.97-6.97,16.07-10.81,26.59-10.81c18.63,0,32.56,10.95,36.11,31.14h-15.64
		c-2.42-10.23-9.25-17.34-20.48-17.34c-5.97,0-11.37,2.27-14.93,6.11c-4.98,5.4-6.12,11.23-6.12,31.57
		c0,20.33,1.14,26.16,6.12,31.56c3.56,3.84,8.96,6.12,14.93,6.12c11.23,0,18.2-7.11,20.62-17.35h15.5
		C723.28,821.76,708.92,832.71,690.58,832.71z"></path>
	<path class="st0 svg-elem-2" d="M807.89,824.17c-4.69,4.84-11.8,8.53-21.61,8.53c-9.81,0-16.77-3.7-21.47-8.53
		c-6.82-7.11-8.53-16.21-8.53-28.43c0-12.09,1.71-21.19,8.53-28.3c4.7-4.83,11.66-8.53,21.47-8.53c9.81,0,16.92,3.7,21.61,8.53
		c6.83,7.11,8.53,16.21,8.53,28.3C816.42,807.97,814.72,817.07,807.89,824.17z M796.94,775.98c-2.7-2.7-6.4-4.12-10.67-4.12
		c-4.26,0-7.82,1.42-10.52,4.12c-4.41,4.41-4.98,11.94-4.98,19.76s0.57,15.36,4.98,19.76c2.7,2.7,6.26,4.27,10.52,4.27
		c4.26,0,7.96-1.57,10.67-4.27c4.41-4.4,4.98-11.94,4.98-19.76S801.35,780.39,796.94,775.98z"></path>
	<path class="st0 svg-elem-3" d="M894.2,831.85v-43.93c0-11.23-6.4-16.07-14.5-16.07c-8.11,0-14.93,4.98-14.93,16.07v43.93h-14.5v-72.09h14.22
		v7.25c4.98-5.4,11.94-8.1,19.2-8.1c7.39,0,13.5,2.42,17.77,6.54c5.54,5.41,7.25,12.23,7.25,20.34v46.07H894.2z"></path>
	<path class="st0 svg-elem-4" d="M973.7,832.71c-16.21,0-32.14-9.95-32.14-36.97c0-27.02,15.92-36.83,32.14-36.83
		c9.95,0,16.92,2.84,23.74,10.09l-9.95,9.67c-4.55-4.98-8.11-6.82-13.79-6.82c-5.55,0-10.24,2.27-13.37,6.4
		c-3.13,3.98-4.26,9.1-4.26,17.49c0,8.39,1.14,13.65,4.26,17.63c3.13,4.12,7.82,6.4,13.37,6.4c5.68,0,9.24-1.85,13.79-6.83
		l9.95,9.53C990.62,829.72,983.65,832.71,973.7,832.71z"></path>
	<path class="st0 svg-elem-5" d="M1036.68,800c0,12.37,6.54,20.19,18.34,20.19c8.11,0,12.37-2.28,17.49-7.39l9.25,8.67
		c-7.39,7.39-14.36,11.23-27.02,11.23c-18.05,0-32.42-9.53-32.42-36.97c0-23.32,12.08-36.83,30.57-36.83
		c19.34,0,30.57,14.22,30.57,34.69v6.4H1036.68z M1067.11,780.1c-2.27-5.4-7.39-9.1-14.22-9.1c-6.83,0-12.08,3.7-14.36,9.1
		c-1.42,3.27-1.71,5.4-1.85,9.81h32.42C1068.96,785.5,1068.53,783.37,1067.11,780.1z"></path>
	<path class="st0 svg-elem-6" d="M1167.78,826.31c-3.98,3.98-10.24,6.4-17.49,6.4c-7.68,0-13.65-1.99-18.91-8.25V861h-14.5V759.77h14.22v7.68
		c5.4-6.54,11.23-8.53,19.05-8.53c7.25,0,13.65,2.42,17.63,6.4c7.25,7.25,8.11,19.48,8.11,30.43
		C1175.89,806.69,1175.03,819.06,1167.78,826.31z M1146.45,771.85c-13.08,0-15.07,11.09-15.07,23.89c0,12.8,1.99,24.03,15.07,24.03
		c13.08,0,14.93-11.23,14.93-24.03C1161.38,782.94,1159.54,771.85,1146.45,771.85z"></path>
	<path class="st0 svg-elem-7" d="M1231.21,831.85c-13.51,0-19.76-9.67-19.76-20.05v-39.67h-8.25v-11.09h8.25v-21.9h14.5v21.9h13.94v11.09
		h-13.94v38.96c0,5.26,2.56,8.39,7.96,8.39h5.97v12.37H1231.21z"></path>
</g>
<g>
	<g>
		<g>
			<g>
				<path class="st0 svg-elem-8" d="M1376.14,521.6c-55.69,0-91.18-37.13-91.18-99.36c0-2.73,0.15-5.39,0.29-8.04l-82.33-82.75
					c-12.84,26.26-20.06,56.65-20.06,90.24c0,114.65,74.26,193.27,191.09,193.27c42.95,0,66.58-11.05,85.71-25.44l-68.72-69.08
					C1386.26,521.17,1381.36,521.6,1376.14,521.6z"></path>
				<path class="st0 svg-elem-9" d="M1377.77,321.78c36.03,0,61.15,18.01,73.15,42.58c1.64,3.28,4.37,6,8.19,4.37l80.26-30.58
					c3.82-1.09,3.28-4.91,1.09-9.82c-26.2-56.24-75.89-100.46-163.79-100.46c-60.64,0-113.95,24.34-149.24,65.97l70.74,71.36
					C1313.07,338.16,1340.17,321.78,1377.77,321.78z"></path>
			</g>
			<path class="st0 svg-elem-10" d="M1545.03,431.96c0-3.94-3.19-7.13-7.13-7.13h-139.25c-3.94,0-7.13,3.19-7.13,7.13v60.61
				c0,3.94,3.19,7.13,7.13,7.13h33.31c-0.07,0.08-0.14,0.16-0.21,0.24l110.21,111.67c0.77,0.76,1.35,1.26,1.82,1.26
				c1.11,0,1.06-0.95,1.06-0.95c0-38.91,0-79.25,0-118.37c0.05-0.33,0.2-0.63,0.2-0.98V431.96z"></path>
		</g>
		<g>
			<g>
				<path class="st0 svg-elem-11" d="M542.3,519.58c-55.69,0-91.18-37.13-91.18-99.36c0-2.73,0.15-5.39,0.29-8.04l-82.33-82.75
					c-12.84,26.26-20.06,56.65-20.06,90.24c0,114.65,74.26,193.27,191.09,193.27c42.95,0,66.58-11.05,85.71-25.44l-68.72-69.08
					C552.43,519.14,547.53,519.58,542.3,519.58z"></path>
				<path class="st0 svg-elem-12" d="M543.94,319.75c36.03,0,61.15,18.01,73.15,42.58c1.64,3.28,4.37,6,8.19,4.37l80.26-30.58
					c3.82-1.09,3.28-4.91,1.09-9.82c-26.2-56.24-75.89-100.46-163.79-100.46c-60.64,0-113.95,24.34-149.24,65.97l70.74,71.36
					C479.24,336.13,506.34,319.75,543.94,319.75z"></path>
			</g>
			<path class="st0 svg-elem-13" d="M711.2,429.94c0-3.94-3.19-7.13-7.13-7.13H564.82c-3.94,0-7.13,3.19-7.13,7.13v60.61
				c0,3.94,3.19,7.13,7.13,7.13h33.31c-0.07,0.08-0.14,0.16-0.21,0.24l110.21,111.67c0.77,0.76,1.35,1.26,1.82,1.26
				c1.11,0,1.06-0.95,1.06-0.95c0-38.91,0-79.25,0-118.37c0.05-0.33,0.2-0.63,0.20-0.98V429.94z"></path>
		</g>
	</g>
	<g>
		<path class="st0 svg-elem-14" d="M863.75,444.36l78.7,79.68C920.81,501.94,873.71,454.4,863.75,444.36z"></path>
		<path class="st0 svg-elem-15" d="M765.22,602.41c0,4.91,0,3.28,4.91,3.28c32.21,0,47.5,0,81.89,0c5.46,0,6-0.55,6-7.64l2.36-95.91
			l-90.98-91.45C767.35,475.94,765.78,542.41,765.22,602.41z"></path>
		<path class="st0 svg-elem-16" d="M1138.11,598.58c-3.82-131.58-7.1-224.94-14.74-367.43c0-2.19-1.09-3.82-2.19-4.37
			c-1.64-0.55-3.82,0-5.46,1.64c-51.32,49.68-142.5,145.22-165.43,172.52C925.73,373.1,831.28,278.1,783.78,231.15
			c-1.64-1.64-2.73-2.19-4.37-2.19c-1.64,0.55-2.73,2.19-3.28,6c-1.61,35.83-3.22,75.16-4.7,115.92l92.32,93.47
			c9.96,10.05,57.06,57.59,78.7,79.68l1.82,1.84l-0.02-0.01c0.78,0.8,1.53,1.57,2.23,2.28c1.64,1.64,2.73,2.73,3.82,2.73
			c1.09,0,2.73-1.09,4.37-2.73c21.84-21.84,82.99-85.17,82.99-85.17l3.28,158.88c0,2.73,0.55,4.37,4.37,4.37
			c34.39,0,57.33,0,88.99,0C1139.75,606.23,1138.11,602.95,1138.11,598.58z"></path>
		<path class="st0 svg-elem-17" d="M942.45,524.04c0.62,0.63,1.22,1.25,1.8,1.83l0.02,0.01L942.45,524.04z"></path>
	</g>
</g>
</svg>