<svg width="55" height="27" viewBox="0 0 55 27" fill="none" xmlns="http://www.w3.org/2000/svg">
<path d="M8.8698 13.4746C6.31413 13.4746 4.68546 11.7713 4.68546 8.91668C4.68546 8.79145 4.69235 8.66943 4.69877 8.54787L0.920572 4.75192C0.331332 5.95653 0 7.3506 0 8.89145C0 14.1507 3.40786 17.7572 8.7693 17.7572C10.7403 17.7572 11.8247 17.2503 12.7026 16.5902L9.54898 13.4214C9.33467 13.4544 9.10981 13.4746 8.8698 13.4746Z" fill="#003955"/>
<path d="M8.94505 4.30788C10.5985 4.30788 11.7513 5.13404 12.302 6.26113C12.3772 6.41159 12.5025 6.53636 12.6778 6.46159L16.361 5.05881C16.5363 5.00881 16.5115 4.83358 16.411 4.60834C15.2087 2.02848 12.9284 0 8.89457 0C6.11174 0 3.6653 1.11654 2.04581 3.0262L5.29213 6.29966C5.97591 5.05927 7.21955 4.30788 8.94505 4.30788Z" fill="#003955"/>
<path d="M16.6208 9.36256C16.6208 9.18183 16.4744 9.03549 16.2936 9.03549H9.90325C9.72244 9.03549 9.57605 9.18183 9.57605 9.36256V12.1429C9.57605 12.3236 9.72244 12.47 9.90325 12.47H11.4319C11.4287 12.4736 11.4255 12.4773 11.4222 12.481L16.4799 17.6035C16.5152 17.6384 16.5418 17.6613 16.5634 17.6613C16.6143 17.6613 16.612 17.6178 16.612 17.6178C16.612 15.8329 16.612 13.9824 16.612 12.1878C16.6143 12.1727 16.6212 12.1589 16.6212 12.1429V9.36256H16.6208Z" fill="#003955"/>
</svg>
