<svg width="55" height="27" viewBox="0 0 55 27" fill="none" xmlns="http://www.w3.org/2000/svg">
<path d="M17.349 25.6578C16.9127 25.6578 16.5353 25.4987 16.2462 25.2097C15.8335 24.7972 15.8393 24.3316 15.8393 23.524C15.8393 22.7165 15.8335 22.2505 16.2462 21.838C16.5353 21.549 16.9127 21.3898 17.349 21.3898C18.1216 21.3898 18.6994 21.8438 18.8466 22.6808H18.1979C18.0976 22.2567 17.8143 21.9619 17.3486 21.9619C17.101 21.9619 16.877 22.056 16.7294 22.2152C16.5228 22.4391 16.4755 22.6808 16.4755 23.524C16.4755 24.3669 16.5228 24.6086 16.7294 24.8324C16.877 24.9916 17.101 25.0862 17.3486 25.0862C17.8143 25.0862 18.1034 24.7914 18.2038 24.3669H18.8466C18.7052 25.2039 18.1096 25.6578 17.349 25.6578Z" fill="#003955"/>
<path d="M22.2143 25.3038C22.0198 25.5044 21.7249 25.6574 21.3181 25.6574C20.9112 25.6574 20.6226 25.504 20.4276 25.3038C20.1448 25.009 20.0739 24.6318 20.0739 24.1252C20.0739 23.6239 20.1448 23.2467 20.4276 22.9519C20.6226 22.7517 20.9112 22.5983 21.3181 22.5983C21.7249 22.5983 22.0198 22.7517 22.2143 22.9519C22.4976 23.2467 22.5681 23.6239 22.5681 24.1252C22.5681 24.6322 22.4976 25.0094 22.2143 25.3038ZM21.7602 23.306C21.6482 23.194 21.4947 23.1352 21.3177 23.1352C21.141 23.1352 20.9933 23.194 20.8813 23.306C20.6984 23.4888 20.6748 23.801 20.6748 24.1252C20.6748 24.4494 20.6984 24.7619 20.8813 24.9444C20.9933 25.0563 21.141 25.1214 21.3177 25.1214C21.4943 25.1214 21.6478 25.0563 21.7602 24.9444C21.9431 24.7619 21.9667 24.4494 21.9667 24.1252C21.9667 23.801 21.9431 23.4888 21.7602 23.306Z" fill="#003955"/>
<path d="M25.7939 25.6222V23.801C25.7939 23.3354 25.5285 23.1348 25.1925 23.1348C24.8562 23.1348 24.5733 23.3412 24.5733 23.801V25.6222H23.972V22.6335H24.5617V22.9341C24.7683 22.7102 25.0569 22.5983 25.358 22.5983C25.6645 22.5983 25.9179 22.6986 26.095 22.8694C26.3248 23.0937 26.3957 23.3764 26.3957 23.7127V25.6226H25.7939V25.6222Z" fill="#003955"/>
<path d="M29.0911 25.6578C28.4188 25.6578 27.7581 25.2453 27.7581 24.1252C27.7581 23.005 28.4184 22.5983 29.0911 22.5983C29.5038 22.5983 29.7928 22.716 30.0757 23.0166L29.663 23.4175C29.4743 23.211 29.3267 23.1348 29.0911 23.1348C28.8609 23.1348 28.6664 23.2289 28.5366 23.4001C28.4068 23.5651 28.3599 23.7773 28.3599 24.1252C28.3599 24.473 28.4072 24.6911 28.5366 24.8561C28.6664 25.0269 28.8609 25.1214 29.0911 25.1214C29.3267 25.1214 29.4743 25.0447 29.663 24.8382L30.0757 25.2333C29.7928 25.5339 29.5038 25.6578 29.0911 25.6578Z" fill="#003955"/>
<path d="M31.7031 24.3018C31.7031 24.8146 31.9743 25.1388 32.4637 25.1388C32.8001 25.1388 32.9768 25.0443 33.1891 24.8324L33.5728 25.1918C33.2663 25.4982 32.9772 25.6574 32.4521 25.6574C31.7035 25.6574 31.1075 25.2623 31.1075 24.1247C31.1075 23.158 31.6085 22.5979 32.3754 22.5979C33.1775 22.5979 33.6433 23.1874 33.6433 24.036V24.3013H31.7031V24.3018ZM32.9652 23.4768C32.871 23.2529 32.6587 23.0995 32.3754 23.0995C32.0921 23.0995 31.8744 23.2529 31.7798 23.4768C31.7209 23.6123 31.7089 23.7006 31.7031 23.8835H33.0477C33.0419 23.7006 33.0241 23.6123 32.9652 23.4768Z" fill="#003955"/>
<path d="M37.1403 25.3925C36.9753 25.5575 36.7156 25.6578 36.4149 25.6578C36.0964 25.6578 35.8488 25.5753 35.6307 25.3158V26.8306H35.0293V22.6339H35.6191V22.9523C35.843 22.6812 36.0848 22.5987 36.4091 22.5987C36.7098 22.5987 36.9753 22.699 37.1403 22.864C37.441 23.1646 37.4767 23.6716 37.4767 24.1256C37.4767 24.5791 37.441 25.0919 37.1403 25.3925ZM36.2557 23.1347C35.7132 23.1347 35.6307 23.5945 35.6307 24.1251C35.6307 24.6558 35.7132 25.1214 36.2557 25.1214C36.7982 25.1214 36.8749 24.6558 36.8749 24.1251C36.8749 23.5945 36.7986 23.1347 36.2557 23.1347Z" fill="#003955"/>
<path d="M39.771 25.6222C39.2107 25.6222 38.9515 25.2213 38.9515 24.791V23.1464H38.6093V22.6866H38.9515V21.7787H39.5529V22.6866H40.131V23.1464H39.5529V24.7615C39.5529 24.9796 39.6591 25.1094 39.883 25.1094H40.1306V25.6222H39.771Z" fill="#003955"/>
<path d="M47.1355 13.5672C44.5798 13.5672 42.9511 11.864 42.9511 9.00936C42.9511 8.88413 42.958 8.76211 42.9645 8.64055L39.1863 4.8446C38.597 6.04921 38.2657 7.44328 38.2657 8.98413C38.2657 14.2434 41.6735 17.8499 47.035 17.8499C49.006 17.8499 50.0904 17.343 50.9683 16.6829L47.8147 13.514C47.5999 13.5475 47.375 13.5672 47.1355 13.5672Z" fill="#003955"/>
<path d="M47.2103 4.40099C48.8638 4.40099 50.0165 5.22715 50.5672 6.35424C50.6425 6.5047 50.7678 6.62947 50.9431 6.5547L54.6263 5.15192C54.8016 5.10192 54.7768 4.92669 54.6763 4.70145C53.474 2.12159 51.1936 0.0931091 47.1598 0.0931091C44.377 0.0931091 41.9306 1.20964 40.3111 3.11931L43.5574 6.39277C44.2412 5.15238 45.4848 4.40099 47.2103 4.40099Z" fill="#003955"/>
<path d="M54.886 9.45524C54.886 9.27451 54.7396 9.12817 54.5588 9.12817H48.1685C47.9877 9.12817 47.8413 9.27451 47.8413 9.45524V12.2356C47.8413 12.4163 47.9877 12.5626 48.1685 12.5626H49.6971C49.6939 12.5663 49.6907 12.57 49.6875 12.5737L54.7451 17.6962C54.7805 17.7311 54.8071 17.754 54.8287 17.754C54.8796 17.754 54.8773 17.7104 54.8773 17.7104C54.8773 15.9256 54.8773 14.0751 54.8773 12.2805C54.8796 12.2654 54.8865 12.2516 54.8865 12.2356V9.45524H54.886Z" fill="#003955"/>
<path d="M8.8698 13.4746C6.31413 13.4746 4.68546 11.7713 4.68546 8.91668C4.68546 8.79145 4.69235 8.66943 4.69877 8.54787L0.920572 4.75192C0.331332 5.95653 0 7.3506 0 8.89145C0 14.1507 3.40786 17.7572 8.7693 17.7572C10.7403 17.7572 11.8247 17.2503 12.7026 16.5902L9.54898 13.4214C9.33467 13.4544 9.10981 13.4746 8.8698 13.4746Z" fill="#003955"/>
<path d="M8.94505 4.30788C10.5985 4.30788 11.7513 5.13404 12.302 6.26113C12.3772 6.41159 12.5025 6.53636 12.6778 6.46159L16.361 5.05881C16.5363 5.00881 16.5115 4.83358 16.411 4.60834C15.2087 2.02848 12.9284 0 8.89457 0C6.11174 0 3.6653 1.11654 2.04581 3.0262L5.29213 6.29966C5.97591 5.05927 7.21955 4.30788 8.94505 4.30788Z" fill="#003955"/>
<path d="M16.6208 9.36256C16.6208 9.18183 16.4744 9.03549 16.2936 9.03549H9.90325C9.72244 9.03549 9.57605 9.18183 9.57605 9.36256V12.1429C9.57605 12.3236 9.72244 12.47 9.90325 12.47H11.4319C11.4287 12.4736 11.4255 12.4773 11.4222 12.481L16.4799 17.6035C16.5152 17.6384 16.5418 17.6613 16.5634 17.6613C16.6143 17.6613 16.612 17.6178 16.612 17.6178C16.612 15.8329 16.612 13.9824 16.612 12.1878C16.6143 12.1727 16.6212 12.1589 16.6212 12.1429V9.36256H16.6208Z" fill="#003955"/>
<path d="M23.6214 10.024L27.233 13.6792C26.24 12.6654 24.0785 10.4846 23.6214 10.024Z" fill="#003955"/>
<path d="M19.0998 17.2742C19.0998 17.4994 19.0998 17.4246 19.3251 17.4246C20.8033 17.4246 21.5049 17.4246 23.0831 17.4246C23.3337 17.4246 23.3585 17.3994 23.3585 17.0742L23.4668 12.6746L19.2916 8.47952C19.1975 11.4727 19.1255 14.5218 19.0998 17.2742Z" fill="#003955"/>
<path d="M36.2121 17.0985C36.0368 11.0626 35.8863 6.77993 35.5357 0.243561C35.5357 0.1431 35.4856 0.0683286 35.4352 0.0430987C35.3599 0.0178689 35.2598 0.0430987 35.1846 0.11833C32.8295 2.39727 28.6451 6.77993 27.5928 8.03224C26.4658 6.75515 22.1314 2.39727 19.9516 0.243561C19.8763 0.16833 19.8263 0.143101 19.751 0.143101C19.6757 0.168331 19.6257 0.243562 19.6005 0.418336C19.5266 2.06195 19.4527 3.86611 19.3848 5.73587L23.6214 10.0236C24.0785 10.4846 26.24 12.6654 27.2331 13.6787L27.3166 13.7631L27.3157 13.7626C27.3515 13.7993 27.3859 13.8346 27.418 13.8672C27.4933 13.9424 27.5433 13.9924 27.5933 13.9924C27.6433 13.9924 27.7186 13.9424 27.7939 13.8672C28.7961 12.8654 31.6023 9.96026 31.6023 9.96026L31.7529 17.2485C31.7529 17.3737 31.7781 17.4489 31.9534 17.4489C33.5316 17.4489 34.5843 17.4489 36.0372 17.4489C36.2873 17.4494 36.2121 17.2989 36.2121 17.0985Z" fill="#003955"/>
<path d="M27.2331 13.6792C27.2615 13.7081 27.289 13.7365 27.3157 13.7631L27.3166 13.7636L27.2331 13.6792Z" fill="#003955"/>
</svg>
